<svg xmlns="http://www.w3.org/2000/svg" version="1.1" viewBox="-5.0 -10.0 110.0 135.0">
 <path d="m41.477 52.199s-6.875-6.8867-8.9883-8.9883c-0.52344-0.52344-1.3281-0.60156-1.8242-0.10547-2.2656 2.2734-9.0586 9.0938-9.0586 9.0938-2.9336 2.9336-2.9336 7.707 0 10.641 1.6133 1.6133 3.8477 2.3789 6.0625 2.1641-0.3125 1.3359-0.87109 2.7188-1.8672 3.6172-0.375 0.33594-0.5 0.86719-0.32031 1.3359 0.17969 0.46875 0.63281 0.77734 1.1328 0.77734h9.8516c0.50391 0 0.95312-0.30859 1.1328-0.77734 0.17969-0.46875 0.054688-1-0.32031-1.3359-0.99219-0.89453-1.5508-2.2812-1.8672-3.6172 2.2148 0.21875 4.4492-0.55078 6.0625-2.1641 2.9336-2.9336 2.9336-7.707 0-10.641zm-1.7188 8.9258c-1.4141 1.4141-3.5391 1.8672-5.4102 1.1562-0.39453-0.14844-0.83984-0.082031-1.1758 0.17578-0.33594 0.25781-0.51172 0.67188-0.46484 1.0938 0.20703 1.8828 0.65234 3.4727 1.3281 4.7578h-4.9961c0.67578-1.2852 1.1211-2.875 1.3281-4.7578 0.046874-0.42188-0.12891-0.83594-0.46484-1.0938-0.33594-0.25781-0.77734-0.32422-1.1758-0.17578-1.875 0.71094-4 0.25781-5.4102-1.1562-1.9883-1.9883-1.9883-5.2188 0-7.207l8.2031-8.2344 8.2344 8.2344c1.9883 1.9883 1.9883 5.2188 0 7.207zm47.125 3.707h-4.4297c5.0703-3.0547 8.1719-8.5273 8.1719-14.469 0-7.9492-5.5664-14.973-13.602-16.559-2.3867-0.47656-4.8711-0.4375-7.3086 0.14844v-18c0-1.9922-1.6172-3.6172-3.6094-3.6172h-37.094c-1.9922 0-3.6172 1.6211-3.6172 3.6172v3.125h-4.3984c-1.9883 0-3.6094 1.625-3.6094 3.625v3.1172h-4.3984c-1.9922 0-3.6172 1.625-3.6172 3.6211v54.598c0 1.9922 1.6211 3.6172 3.6172 3.6172h37.098c1.9883 0 3.6094-1.6211 3.6094-3.6172v-3.125h3.3047c0.45703 1.5508 1.8789 2.6953 3.5781 2.6953h26.309c2.0586 0 3.7344-1.6758 3.7344-3.7344v-3.1289c0-0.97656-0.38281-1.8555-1-2.5234 0.61328-0.66797 1-1.5508 1-2.5273v-3.1211c0-2.0625-1.6758-3.7422-3.7344-3.7422zm-7.5234-1.1484-0.56641-2.3125c2.8203-1.3008 4.7852-3.4102 5.9414-5.9375l2.3125 0.56641c-1.4609 3.4609-4.2227 6.2227-7.6875 7.6836zm8.4492-9.9961-2.2656-0.55469c0.42578-1.8008 0.41797-3.7617 0-5.5312l2.2656-0.55469c0.48047 2.0508 0.52344 4.4102 0 6.6406zm-8.4492-16.637c3.4648 1.4609 6.2266 4.2227 7.6875 7.6836l-2.3125 0.56641c-1.2461-2.6992-3.3438-4.7422-5.9375-5.9414l0.56641-2.3086zm-2.3125-0.76562-0.55469 2.2656c-1.8789-0.44531-3.8555-0.39453-5.5234-0.003906l-0.55469-2.2656c2.1836-0.51172 4.5859-0.48438 6.6328 0.003906zm-1.3516 4.5859c5.4531 1.1562 8.8281 6.6094 7.4219 11.945-1.4375 5.4297-7.2578 8.5938-12.621 6.6992-5-1.7656-7.707-7.3438-5.9141-12.391 1.5938-4.4766 6.3008-7.2539 11.113-6.2539zm1.3516 23.578c-2.082 0.49219-4.4375 0.51562-6.6328 0.003906l0.55469-2.2656c1.7969 0.42188 3.7773 0.41016 5.5234-0.003906zm-16.641-8.4453 2.3008-0.5625c1.1562 2.5273 3.2578 4.6953 5.9609 5.9453l-0.5625 2.2969c-3.5938-1.5078-6.2695-4.3047-7.6953-7.6836zm4.5859 8.832h-3.2852v-2.5898c1.0156 1.0273 2.1719 1.918 3.2852 2.5898zm-3.082-11.703-2.2695 0.55469c-0.51953-2.1953-0.48438-4.5859 0-6.6406l2.2695 0.55469c-0.42969 1.8125-0.41797 3.7695 0 5.5312zm6.7539-13.785c-2.6445 1.2227-4.7734 3.3477-5.9609 5.9453l-2.3008-0.5625c1.4688-3.4688 4.1953-6.1992 7.6953-7.6797l0.5625 2.2969zm-40.84-23.391c0-0.65625 0.53125-1.1875 1.1875-1.1875h37.094c0.66016 0 1.1797 0.52344 1.1797 1.1875v18.789c-1.4414 0.59375-3.1055 1.5781-4.4492 2.707-0.40625 0.34375-0.91406 0.82422-1.1289 1.043v-15.789c0-1.9961-1.6211-3.625-3.6172-3.625h-30.27v-3.125zm23.445 68.086c0 0.65625-0.52734 1.1875-1.1797 1.1875h-37.098c-0.65625 0-1.1875-0.53125-1.1875-1.1875v-54.598c0-0.66016 0.53125-1.1953 1.1875-1.1953h37.098c0.66406 0 1.1797 0.55078 1.1797 1.1953v54.598zm5.5664-15.465v3.1211c0 0.96094 0.41797 1.8945 0.98437 2.5156-0.56641 0.61328-0.98437 1.543-0.98437 2.5352v1.7422h-3.1367v-49.043c0-1.9883-1.6094-3.625-3.6094-3.625h-30.27v-3.1172c0-0.66016 0.52734-1.1953 1.1797-1.1953h37.098c0.65625 0 1.1875 0.53516 1.1875 1.1953v18.895c-3.2188 5.2773-3.2812 12.152 0 17.531v5.9336c-1.4336 0.51953-2.4453 1.9375-2.4453 3.5117zm31.355 11.297c0 0.72266-0.58594 1.3086-1.3086 1.3086h-26.309c-0.72266 0-1.3125-0.58594-1.3125-1.3086v-3.1289c0-0.71094 0.55469-1.3008 1.2656-1.3008 0.97266 0 19.711-0.003906 26.355-0.007812 0.72266 0 1.3086 0.58594 1.3086 1.3047zm0-8.1758c0 0.72656-0.58594 1.3164-1.3086 1.3164-5.6641 0-25.383-0.007813-26.355-0.007813-0.69922 0-1.2656-0.60547-1.2656-1.3086v-3.1211c0-0.71484 0.55469-1.3086 1.2656-1.3086 1.3828 0 21.949-0.007812 26.355-0.007812 0.72266 0 1.3086 0.58984 1.3086 1.3164z"/>
</svg>