<svg width="22" height="17" viewBox="0 0 22 17" fill="none" xmlns="http://www.w3.org/2000/svg">
<g clip-path="url(#clip0_746373_122)">
<path d="M0 4.64941H1.41504V2.8125C1.41504 1.89844 1.89844 1.43262 2.77734 1.43262H4.59668V0.0175781H2.75977C0.922852 0.0175781 0 0.922852 0 2.74219V4.64941ZM0 10.3623H1.41504V5.85352H0V10.3623ZM2.75977 16.1982H4.59668V14.7832H2.77734C1.89844 14.7832 1.41504 14.3174 1.41504 13.4033V11.5664H0V13.4736C0 15.293 0.922852 16.1982 2.75977 16.1982ZM5.80078 16.1982H9.76465V14.7832H5.80078V16.1982ZM10.96 16.1982H14.9238V14.7832H10.96V16.1982ZM17.9648 16.1982C19.8018 16.1982 20.7246 15.293 20.7246 13.4736V11.5664H19.3096V13.4033C19.3096 14.3174 18.8262 14.7832 17.9473 14.7832H16.1279V16.1982H17.9648ZM20.7246 4.64941V2.74219C20.7246 0.922852 19.8018 0.0175781 17.9648 0.0175781H16.1279V1.43262H17.9473C18.8262 1.43262 19.3096 1.89844 19.3096 2.8125V4.64941H20.7246ZM20.7246 10.3623V5.85352H19.3096V10.3623H20.7246ZM5.80078 1.43262H9.76465V0.0175781H5.80078V1.43262ZM10.96 1.43262H14.9238V0.0175781H10.96V1.43262Z" fill="white" fill-opacity="0.85"/>
</g>
<defs>
<clipPath id="clip0_746373_122">
<rect width="21.0938" height="16.1982" fill="white"/>
</clipPath>
</defs>
</svg>
