<svg width="22" height="17" viewBox="0 0 22 17" fill="none" xmlns="http://www.w3.org/2000/svg">
<g clip-path="url(#clip0_746373_113)">
<path d="M20.7246 2.74219V13.4736C20.7246 15.2842 19.8105 16.1982 17.9648 16.1982H2.75977C0.922852 16.1982 0 15.293 0 13.4736V2.74219C0 0.922852 0.922852 0.0175781 2.75977 0.0175781H17.9648C19.8105 0.0175781 20.7246 0.931641 20.7246 2.74219ZM1.41504 4.44727V13.4033C1.41504 14.3174 1.89844 14.7832 2.77734 14.7832H17.9473C18.8174 14.7832 19.3096 14.3174 19.3096 13.4033V4.44727H1.41504ZM2.00391 2.23242C2.00391 2.64551 2.35547 3.01465 2.78613 3.01465C3.2168 3.01465 3.57715 2.64551 3.57715 2.23242C3.57715 1.81934 3.2168 1.4502 2.78613 1.4502C2.35547 1.4502 2.00391 1.81934 2.00391 2.23242ZM4.52637 2.23242C4.52637 2.64551 4.87793 3.01465 5.30859 3.01465C5.73926 3.01465 6.09961 2.64551 6.09961 2.23242C6.09961 1.81934 5.73926 1.4502 5.30859 1.4502C4.87793 1.4502 4.52637 1.81934 4.52637 2.23242ZM7.04883 2.23242C7.04883 2.64551 7.40039 3.01465 7.83105 3.01465C8.26172 3.01465 8.61328 2.64551 8.61328 2.23242C8.61328 1.81934 8.26172 1.4502 7.83105 1.4502C7.40039 1.4502 7.04883 1.81934 7.04883 2.23242Z" fill="white" fill-opacity="0.85"/>
</g>
<defs>
<clipPath id="clip0_746373_113">
<rect width="21.0938" height="16.1982" fill="white"/>
</clipPath>
</defs>
</svg>
