<svg width="19" height="18" viewBox="0 0 19 18" fill="none" xmlns="http://www.w3.org/2000/svg">
<g clip-path="url(#clip0_746373_104)">
<path d="M17.9297 8.96484C17.9297 13.9043 13.9131 17.9297 8.96484 17.9297C4.02539 17.9297 0 13.9043 0 8.96484C0 4.0166 4.02539 0 8.96484 0C13.9131 0 17.9297 4.0166 17.9297 8.96484ZM11.4346 5.50195L8.96484 7.9541L6.5127 5.51074C6.37207 5.37891 6.21387 5.30859 6.01172 5.30859C5.60742 5.30859 5.29102 5.61621 5.29102 6.0293C5.29102 6.22266 5.36133 6.39844 5.50195 6.53906L7.93652 8.97363L5.50195 11.417C5.36133 11.5488 5.29102 11.7334 5.29102 11.9268C5.29102 12.3311 5.60742 12.6562 6.01172 12.6562C6.21387 12.6562 6.39844 12.5859 6.53906 12.4453L8.96484 10.002L11.3994 12.4453C11.5312 12.5859 11.7158 12.6562 11.918 12.6562C12.3311 12.6562 12.6562 12.3311 12.6562 11.9268C12.6562 11.7246 12.5859 11.54 12.4365 11.4082L10.002 8.97363L12.4453 6.53027C12.6035 6.37207 12.665 6.21387 12.665 6.01172C12.665 5.60742 12.3398 5.29102 11.9355 5.29102C11.7422 5.29102 11.584 5.35254 11.4346 5.50195Z" fill="white" fill-opacity="0.85"/>
</g>
<defs>
<clipPath id="clip0_746373_104">
<rect width="18.2988" height="17.9385" fill="white"/>
</clipPath>
</defs>
</svg>
